<?xml version="1.0" encoding="UTF-8" standalone="no"?>
<!-- Generator: Adobe Illustrator 19.0.0, SVG Export Plug-In . SVG Version: 6.00 Build 0)  -->

<svg
   xmlns:dc="http://purl.org/dc/elements/1.1/"
   xmlns:cc="http://creativecommons.org/ns#"
   xmlns:rdf="http://www.w3.org/1999/02/22-rdf-syntax-ns#"
   xmlns:svg="http://www.w3.org/2000/svg"
   xmlns="http://www.w3.org/2000/svg"
   xmlns:sodipodi="http://sodipodi.sourceforge.net/DTD/sodipodi-0.dtd"
   xmlns:inkscape="http://www.inkscape.org/namespaces/inkscape"
   version="1.1"
   id="Layer_1"
   x="0px"
   y="0px"
   viewBox="0 0 512 512"
   style="enable-background:new 0 0 512 512;"
   xml:space="preserve"
   sodipodi:docname="check-box.svg"
   inkscape:version="0.92.4 (5da689c313, 2019-01-14)"><metadata
   id="metadata2702"><rdf:RDF><cc:Work
       rdf:about=""><dc:format>image/svg+xml</dc:format><dc:type
         rdf:resource="http://purl.org/dc/dcmitype/StillImage" /></cc:Work></rdf:RDF></metadata><defs
   id="defs2700" /><sodipodi:namedview
   pagecolor="#ffffff"
   bordercolor="#666666"
   borderopacity="1"
   objecttolerance="10"
   gridtolerance="10"
   guidetolerance="10"
   inkscape:pageopacity="0"
   inkscape:pageshadow="2"
   inkscape:window-width="1366"
   inkscape:window-height="704"
   id="namedview2698"
   showgrid="false"
   inkscape:zoom="0.4609375"
   inkscape:cx="251.66102"
   inkscape:cy="256"
   inkscape:window-x="0"
   inkscape:window-y="27"
   inkscape:window-maximized="1"
   inkscape:current-layer="Layer_1" />
<rect
   x="76.089"
   y="57.321"
   style="fill:#ECE7EA;"
   width="359.822"
   height="454.679"
   id="rect2647" />
<path
   style="fill:#8B7E7F;"
   d="M340.148,31.123h-53.025C287.123,13.936,273.188,0,255.999,0s-31.124,13.936-31.124,31.123H171.85  c-8.276,0-14.986,6.709-14.986,14.986V83.53h198.269V46.108C355.133,37.833,348.424,31.123,340.148,31.123z"
   id="path2649" />








<g
   id="g2667">
</g>
<g
   id="g2669">
</g>
<g
   id="g2671">
</g>
<g
   id="g2673">
</g>
<g
   id="g2675">
</g>
<g
   id="g2677">
</g>
<g
   id="g2679">
</g>
<g
   id="g2681">
</g>
<g
   id="g2683">
</g>
<g
   id="g2685">
</g>
<g
   id="g2687">
</g>
<g
   id="g2689">
</g>
<g
   id="g2691">
</g>
<g
   id="g2693">
</g>
<g
   id="g2695">
</g>
<g
   transform="matrix(1.5845806,0,0,1.5845806,51.155135,99.810128)"
   id="g3184"><path
     style="fill:#f2e1d6"
     inkscape:connector-curvature="0"
     d="m 118.92,180.79 c -3.08,-1.07 -5.85,-2.82 -8.13,-5.06 -2.3,-2.24 -4.09,-4.98 -5.23,-8.06 -0.02,-0.03 -0.03,-0.07 -0.04,-0.1 -1.62,-4.43 -5.89,-7.33 -10.61,-7.33 H 67.16 V 69.03 c 0,-2.2 2.07,-4.08 4.69,-3.22 3.47,1.27 8.61,3.42 14.49,6.8 15.07,8.69 27.26,20.86 35.57,36 1.54,2.82 2.96,5.73 4.23,8.74 -8.103,19.323 -10.204,43.314 -7.22,63.44 z"
     id="path3120" /><path
     style="fill:#f0c020"
     inkscape:connector-curvature="0"
     d="m 178.985,66.352 c -3.374,1.307 -7.938,3.321 -13.037,6.256 -1.532,-1.414 -3.246,-2.732 -5.11,-3.953 0.761,-0.954 1.425,-1.918 2.003,-2.903 6.342,-10.916 1.103,-23.545 -13.358,-30.68 -0.204,-7.081 -2.121,-13.561 -5.174,-18.725 1.853,-0.611 3.706,-0.964 5.517,-1.103 15.425,-1.135 28.366,13.862 23.342,29.769 3.589,3.696 5.752,8.377 6.309,13.304 0.312,2.647 0.151,5.357 -0.492,8.035 z"
     id="path3122" /><path
     style="fill:#d6c0b4"
     inkscape:connector-curvature="0"
     d="m 118.92,180.79 c -3.08,-1.07 -5.85,-2.82 -8.13,-5.06 -2.12,-22.51 1.22,-47.32 11.12,-67.12 1.54,2.82 2.96,5.73 4.23,8.74 -8.103,19.323 -10.204,43.314 -7.22,63.44 z"
     id="path3124" /><path
     style="fill:#f0c020"
     inkscape:connector-curvature="0"
     d="m 110.07,13.24 c -4.27,5.53 -7.01,13.24 -7.27,21.83 -14.56,7.19 -19.65,19.84 -13.34,30.69 0.56,0.98 1.23,1.95 1.99,2.89 -1.87,1.23 -3.58,2.54 -5.11,3.96 C 80.46,69.23 75.32,67.08 71.85,65.81 70.9,63.32 70.42,60.7 70.4,58.07 70.3,50.8 73.69,43.48 80.31,38.93 c -2.68,-15.39 9.91,-27.82 24,-26.84 1.91,0.12 3.84,0.51 5.76,1.15 z"
     id="path3126" /><path
     style="fill:#13bf6d"
     inkscape:connector-curvature="0"
     d="m 165.95,72.61 c -17.37,9.97 -31.51,25.06 -39.81,44.74 -1.27,-3.01 -2.69,-5.92 -4.23,-8.74 -8.31,-15.14 -20.5,-27.31 -35.57,-36 1.53,-1.42 3.24,-2.73 5.11,-3.96 -0.76,-0.94 -1.43,-1.91 -1.99,-2.89 -6.31,-10.85 -1.22,-23.5 13.34,-30.69 0.26,-8.59 3,-16.3 7.27,-21.83 9.877,-12.776 25.661,-11.382 34.24,3.11 3.05,5.16 4.97,11.64 5.17,18.72 14.47,7.14 19.7,19.77 13.36,30.68 -0.58,0.99 -1.24,1.95 -2,2.9 1.86,1.23 3.58,2.54 5.11,3.96 z"
     id="path3128" /><path
     style="fill:#e8a61f"
     inkscape:connector-curvature="0"
     d="m 110.07,13.24 c -4.27,5.53 -7.01,13.24 -7.27,21.83 -14.56,7.19 -19.65,19.84 -13.34,30.69 0.56,0.98 1.23,1.95 1.99,2.89 -1.87,1.23 -3.58,2.54 -5.11,3.96 -5.88,-3.38 -11.02,-5.53 -14.49,-6.8 -0.95,-2.49 -1.43,-5.11 -1.45,-7.74 2.04,0 3.85,0.24 11.79,3.94 -3.22,-12.46 4.18,-23.69 15.45,-30.25 0.69,-7.29 3,-14.12 6.67,-19.67 1.91,0.12 3.84,0.51 5.76,1.15 z"
     id="path3130" /><path
     style="fill:#e8a61f"
     inkscape:connector-curvature="0"
     d="m 178.985,66.352 c -3.374,1.307 -7.938,3.321 -13.037,6.256 -1.532,-1.414 -3.246,-2.732 -5.11,-3.953 0.761,-0.954 1.425,-1.918 2.003,-2.903 6.342,-10.916 1.103,-23.545 -13.358,-30.68 -0.204,-7.081 -2.121,-13.561 -5.174,-18.725 1.853,-0.611 3.706,-0.964 5.517,-1.103 2.614,4.96 4.263,10.584 4.82,16.518 11.489,6.693 18.613,17.952 15.468,30.24 1.949,-0.908 7.261,-3.291 9.362,-3.685 0.313,2.647 0.152,5.357 -0.491,8.035 z"
     id="path3132" /><path
     style="fill:#d6c0b4"
     inkscape:connector-curvature="0"
     d="m 157.39,152.75 c -7.87,0 -14.98,4.95 -17.69,12.32 -3.264,8.884 -14.125,12.217 -21.74,6.88 -2.4,-1.65 -4.35,-4.05 -5.39,-6.95 -2.68,-7.33 -9.77,-12.25 -17.66,-12.25 H 67.16 v 7.49 h 27.75 c 4.72,0 8.99,2.9 10.61,7.33 0.01,0.03 0.02,0.07 0.04,0.1 1.14,3.08 2.93,5.82 5.23,8.06 2.28,2.24 5.05,3.99 8.13,5.06 11.83,4.07 23.87,-2.42 27.82,-13.12 1.64,-4.47 5.89,-7.43 10.65,-7.43 h 27.73 v -7.49 z"
     id="path3134" /><path
     style="fill:#fc5d3d"
     inkscape:connector-curvature="0"
     d="m 192.29,167.4 v 84.1 H 60 v -84.1 c 0,-3.99 3.24,-7.16 7.16,-7.16 h 27.75 c 4.72,0 8.99,2.9 10.61,7.33 0.01,0.03 0.02,0.07 0.04,0.1 1.14,3.08 2.93,5.82 5.23,8.06 2.28,2.24 5.05,3.99 8.13,5.06 11.83,4.07 23.87,-2.42 27.82,-13.12 1.64,-4.47 5.89,-7.43 10.65,-7.43 h 27.74 c 3.96,0 7.16,3.21 7.16,7.16 z"
     id="path3136" /><path
     style="fill:#f2e1d6"
     inkscape:connector-curvature="0"
     d="m 185.12,69.04 v 91.2 h -27.73 c -4.76,0 -9.01,2.96 -10.65,7.43 -3.95,10.7 -15.99,17.19 -27.82,13.12 -2.98,-20.13 -0.88,-44.12 7.22,-63.44 8.3,-19.68 22.44,-34.77 39.81,-44.74 5.1,-2.94 9.66,-4.95 13.04,-6.26 0.53,-0.2 1.02,-0.38 1.5,-0.56 2.26,-0.81 4.63,0.85 4.63,3.25 z"
     id="path3138" /><path
     style="fill:#139c6d"
     inkscape:connector-curvature="0"
     d="m 165.95,72.61 c -17.37,9.97 -31.51,25.06 -39.81,44.74 -1.27,-3.01 -2.69,-5.92 -4.23,-8.74 -8.31,-15.14 -20.5,-27.31 -35.57,-36 1.53,-1.42 3.24,-2.73 5.11,-3.96 -0.76,-0.94 -1.43,-1.91 -1.99,-2.89 14.34,8.77 26.27,18.15 36.68,35.2 8.79,-14.33 21.05,-26.23 36.07,-34.85 l 0.63,-0.36 c -0.58,0.99 -1.24,1.95 -2,2.9 1.86,1.23 3.58,2.54 5.11,3.96 z"
     id="path3140" /><ellipse
     style="fill:#f2e1d6"
     cx="126.143"
     cy="218.694"
     rx="37.34"
     ry="22.094"
     id="ellipse3142" /><g
     style="fill:#f0c020"
     id="g3150"><path
       inkscape:connector-curvature="0"
       d="m 48.966,111.414 c -4.288,-1.417 -8.716,-2.655 -11.202,-13.364 -2.29,9.864 -5.958,11.632 -11.202,13.364 8.552,2.826 9.842,7.505 11.202,13.364 2.344,-10.099 6.22,-11.717 11.202,-13.364 z"
       id="path3144" /><path
       inkscape:connector-curvature="0"
       d="m 210.882,26.776 c -4.288,-1.417 -8.716,-2.655 -11.202,-13.364 -2.29,9.864 -5.958,11.632 -11.202,13.364 8.552,2.826 9.842,7.505 11.202,13.364 2.344,-10.1 6.22,-11.718 11.202,-13.364 z"
       id="path3146" /><path
       inkscape:connector-curvature="0"
       d="m 229.437,61.368 c -4.288,-1.417 -8.716,-2.655 -11.202,-13.364 -2.29,9.864 -5.958,11.632 -11.202,13.364 8.552,2.826 9.842,7.505 11.202,13.364 2.344,-10.1 6.22,-11.718 11.202,-13.364 z"
       id="path3148" /></g><path
     inkscape:connector-curvature="0"
     d="m 171.473,100.53 c 0.976,-0.977 0.976,-2.56 0,-3.535 l -2.142,-2.142 c -0.977,-0.977 -2.559,-0.977 -3.536,0 -0.976,0.977 -0.976,2.56 0,3.535 l 2.142,2.142 c 0.977,0.977 2.56,0.977 3.536,0 z"
     id="path3152" /><path
     inkscape:connector-curvature="0"
     d="m 92.024,109.838 c -0.976,-0.977 -2.56,-0.977 -3.535,0 -0.977,0.977 -0.977,2.559 0,3.535 l 2.143,2.143 c 0.976,0.977 2.56,0.977 3.535,0 0.977,-0.977 0.977,-2.559 0,-3.535 z"
     id="path3154" /><path
     inkscape:connector-curvature="0"
     d="m 148.458,120.205 -2.142,2.143 c -0.976,0.977 -0.976,2.56 0,3.535 0.977,0.977 2.559,0.977 3.536,0 l 2.142,-2.143 c 0.976,-0.977 0.976,-2.56 0,-3.535 -0.977,-0.976 -2.559,-0.976 -3.536,0 z"
     id="path3156" /><path
     inkscape:connector-curvature="0"
     d="m 85.64,132.702 -2.143,2.143 c -0.977,0.977 -0.977,2.559 0,3.535 0.976,0.977 2.56,0.977 3.535,0 l 2.143,-2.143 c 0.977,-0.977 0.977,-2.559 0,-3.535 -0.975,-0.976 -2.559,-0.976 -3.535,0 z"
     id="path3158" /><path
     inkscape:connector-curvature="0"
     d="m 165.579,141.817 c -0.976,-0.977 -2.56,-0.977 -3.535,0 -0.977,0.977 -0.977,2.559 0,3.535 l 2.143,2.143 c 0.976,0.977 2.56,0.977 3.535,0 0.977,-0.977 0.977,-2.559 0,-3.535 z"
     id="path3160" /><path
     inkscape:connector-curvature="0"
     d="m 59.99,221.7 c -1.37,0 -2.49,1.119 -2.49,2.5 v 27.3 c 0,1.38 1.12,2.5 2.49,2.5 1.38,0 2.51,-1.12 2.51,-2.5 v -27.3 c 0,-1.381 -1.13,-2.5 -2.51,-2.5 z"
     id="path3162" /><path
     inkscape:connector-curvature="0"
     d="m 192.29,254 c 1.38,0 2.5,-1.12 2.5,-2.5 v -0.01 -84.091 c 0,-4.459 -3.047,-8.219 -7.17,-9.322 V 147.5 c 0,-1.38 -1.12,-2.5 -2.5,-2.5 -1.37,0 -2.5,1.12 -2.5,2.5 v 10.24 h -25.23 -0.01 c -5.653,0 -10.97,3.556 -12.98,9.069 -3.594,9.722 -14.122,14.611 -23.207,12.05 -7.223,-54.243 19.468,-95.903 60.147,-110.72 0.635,-0.232 1.28,0.263 1.28,0.9 v 58.46 c 0,1.38 1.13,2.5 2.5,2.5 1.38,0 2.5,-1.12 2.5,-2.5 V 69.04 c -0.009,-3.162 -2.492,-5.749 -5.6,-5.941 0.589,-6.87 -1.544,-13.536 -6.063,-18.743 C 180.731,25.761 163.805,8.906 145.426,13.438 136.06,-0.515 119.843,-1.907 109.197,10.376 103.217,8.802 97.037,9.491 91.71,12.1 c -1.255,0.607 -1.747,2.106 -1.15,3.34 0.651,1.318 2.2,1.72 3.34,1.15 3.827,-1.859 7.976,-2.456 12.106,-1.782 -3.234,5.332 -5.208,11.801 -5.636,18.704 -14.883,7.979 -20.4,22.165 -12.437,34.544 -0.666,0.493 -1.3,1 -1.914,1.514 -4.787,-2.635 -9.036,-4.478 -12.168,-5.68 -2.713,-8.443 0.464,-17.814 7.87,-22.899 0.8,-0.551 1.22,-1.53 1.05,-2.49 -0.504,-2.86 -0.438,-5.709 0.25,-8.53 0.33,-1.34 -0.49,-2.7 -1.83,-3.03 -1.33,-0.319 -2.7,0.521 -3.02,1.83 -0.712,2.906 -0.919,5.945 -0.55,9.03 -7.77,6.079 -11.288,16.07 -9.066,25.655 -2.441,0.881 -3.892,3.178 -3.892,5.574 v 89.051 c -4.114,1.107 -7.162,4.864 -7.162,9.319 v 36.8 c 0,1.38 1.12,2.5 2.49,2.5 1.38,0 2.51,-1.12 2.51,-2.5 v -36.801 c 0,-2.555 2.083,-4.641 4.646,-4.658 0.005,0 0.01,10e-4 0.015,10e-4 h 27.745 c 3.615,0 6.967,2.204 8.304,5.797 3.498,9.433 12.564,15.97 22.96,15.97 10.17,-0.01 19.39,-6.43 22.92,-15.979 1.27,-3.461 4.6,-5.79 8.3,-5.79 h 27.73 0.01 c 2.57,0.01 4.66,2.1 4.66,4.659 V 251.5 c -0.001,1.38 1.119,2.5 2.499,2.5 z m -81.818,-82.478 c -1.28,-1.742 -2.116,-3.476 -2.602,-4.809 -1.735,-4.757 -6.502,-8.974 -12.661,-8.974 H 69.662 v -88.71 c 0,-0.649 0.575,-1.121 1.33,-0.877 22.265,8.176 41.879,25.082 52.434,49.229 -7.404,18.264 -9.625,40.074 -7.562,59.177 -2.34,-1.475 -3.879,-2.972 -5.392,-5.036 z M 170.785,44.261 c -0.277,0.877 -0.05,1.835 0.59,2.494 4.728,4.869 6.555,11.477 5.439,17.768 -3.238,1.31 -6.965,3.058 -10.55,5.037 -0.494,-0.414 -1.272,-1.03 -1.911,-1.503 7.731,-11.829 2.994,-26.278 -12.438,-34.544 -0.349,-5.72 -1.81,-11.124 -3.904,-15.523 14.474,-2.541 27.493,11.326 22.774,26.271 z m -66.877,-6.948 c 0.829,-0.409 1.364,-1.242 1.392,-2.166 C 105.768,19.502 115.008,7 126.143,7 c 6.178,0 12.017,3.872 16.016,10.62 2.973,5.027 4.642,11.087 4.827,17.524 0.027,0.925 0.563,1.76 1.393,2.17 13.614,6.717 19.084,19.02 10.506,29.783 -0.918,1.151 -0.645,2.843 0.585,3.649 0.718,0.47 1.494,1.022 2.165,1.528 -13.296,8.247 -24.886,19.916 -32.992,34.33 V 86.928 L 150.87,65.987 c 1.005,-0.946 1.052,-2.528 0.105,-3.534 -0.946,-1.003 -2.528,-1.051 -3.534,-0.104 L 128.643,80.06 V 58.812 l 12.284,-11.924 c 0.991,-0.962 1.014,-2.545 0.053,-3.535 -0.962,-0.99 -2.544,-1.014 -3.535,-0.053 l -8.801,8.543 v -28.37 c 0,-1.381 -1.119,-2.5 -2.5,-2.5 -1.381,0 -2.5,1.119 -2.5,2.5 v 28.371 l -9.467,-9.189 c -0.99,-0.962 -2.573,-0.938 -3.535,0.053 -0.961,0.99 -0.938,2.573 0.053,3.535 l 12.949,12.57 V 80.059 L 104.499,62.018 c -1.004,-0.946 -2.586,-0.9 -3.534,0.104 -0.948,1.004 -0.9,2.587 0.105,3.534 l 22.573,21.271 V 106.6 c -8.22,-14.636 -19.567,-25.966 -33,-34.328 0.692,-0.522 1.418,-1.031 2.174,-1.526 1.232,-0.807 1.507,-2.506 0.577,-3.661 -8.622,-10.688 -3.037,-23.082 10.514,-29.772 z"
     id="path3164" /><path
     inkscape:connector-curvature="0"
     d="m 59.99,211.7 c -1.37,0 -2.49,1.119 -2.49,2.5 0,1.38 1.12,2.5 2.49,2.5 1.38,0 2.51,-1.12 2.51,-2.5 0,-1.381 -1.13,-2.5 -2.51,-2.5 z"
     id="path3166" /><path
     inkscape:connector-curvature="0"
     d="m 126.143,243.288 c 22.34,0 39.84,-10.803 39.84,-24.594 0,-13.791 -17.5,-24.594 -39.84,-24.594 -22.34,0 -39.84,10.803 -39.84,24.594 0,13.791 17.499,24.594 39.84,24.594 z m 0,-44.187 c 18.885,0 34.84,8.973 34.84,19.594 0,10.621 -15.955,19.594 -34.84,19.594 -18.885,0 -34.84,-8.973 -34.84,-19.594 0,-10.621 15.954,-19.594 34.84,-19.594 z"
     id="path3168" /><path
     inkscape:connector-curvature="0"
     d="m 104.996,226.952 h 42.294 c 1.381,0 2.5,-1.119 2.5,-2.5 0,-1.381 -1.119,-2.5 -2.5,-2.5 h -42.294 c -1.381,0 -2.5,1.119 -2.5,2.5 0,1.381 1.119,2.5 2.5,2.5 z"
     id="path3170" /><path
     inkscape:connector-curvature="0"
     d="m 116.368,215.437 h 19.55 c 1.381,0 2.5,-1.119 2.5,-2.5 0,-1.381 -1.119,-2.5 -2.5,-2.5 h -19.55 c -1.381,0 -2.5,1.119 -2.5,2.5 0,1.381 1.119,2.5 2.5,2.5 z"
     id="path3172" /><circle
     cx="185.12"
     cy="137.5"
     r="2.5"
     id="circle3174" /><path
     inkscape:connector-curvature="0"
     d="m 83.45,22.439 c 1.093,0.875 2.656,0.703 3.52,-0.359 0.87,-1.07 0.71,-2.641 -0.36,-3.521 -1.03,-0.83 -2.68,-0.67 -3.52,0.36 v 0.01 c -0.881,1.092 -0.697,2.657 0.36,3.51 z"
     id="path3176" /><path
     inkscape:connector-curvature="0"
     d="m 25.724,113.953 c 7.348,2.428 8.178,6.009 9.435,11.43 0.638,2.746 4.571,2.752 5.21,0 2.089,-9.002 5.17,-10.02 9.436,-11.429 2.443,-0.807 2.437,-4.273 0,-5.078 -4.071,-1.349 -7.291,-2.192 -9.436,-11.43 -0.636,-2.744 -4.571,-2.752 -5.209,0 -2.09,9.003 -5.171,10.021 -9.436,11.43 -2.442,0.806 -2.437,4.272 0,5.077 z m 12.051,-7.93 c 1.394,2.623 3.009,4.282 4.674,5.418 -1.747,1.175 -3.303,2.79 -4.624,5.23 -1.059,-1.883 -2.574,-3.663 -4.885,-5.192 1.836,-1.203 3.463,-2.874 4.835,-5.456 z"
     id="path3178" /><path
     inkscape:connector-curvature="0"
     d="m 202.285,40.744 c 2.089,-9.002 5.17,-10.02 9.436,-11.429 2.443,-0.807 2.437,-4.273 0,-5.078 -4.071,-1.35 -7.291,-2.193 -9.436,-11.43 -0.636,-2.744 -4.571,-2.752 -5.209,0 -2.09,9.003 -5.171,10.021 -9.436,11.43 -2.443,0.807 -2.437,4.273 0,5.078 7.348,2.428 8.178,6.009 9.435,11.43 0.638,2.745 4.571,2.751 5.21,-10e-4 z m -2.594,-19.359 c 1.394,2.622 3.009,4.282 4.674,5.418 -1.747,1.175 -3.303,2.789 -4.624,5.23 -1.059,-1.883 -2.574,-3.663 -4.885,-5.192 1.836,-1.204 3.463,-2.874 4.835,-5.456 z"
     id="path3180" /><path
     inkscape:connector-curvature="0"
     d="m 206.195,63.906 c 7.348,2.428 8.178,6.009 9.435,11.43 0.638,2.746 4.571,2.752 5.21,0 2.089,-9.002 5.17,-10.02 9.436,-11.429 2.443,-0.807 2.437,-4.273 0,-5.078 -4.071,-1.349 -7.291,-2.193 -9.436,-11.43 -0.636,-2.744 -4.571,-2.752 -5.209,0 -2.09,9.003 -5.171,10.021 -9.436,11.43 -2.443,0.806 -2.437,4.272 0,5.077 z m 12.05,-7.929 c 1.394,2.622 3.009,4.282 4.674,5.418 -1.747,1.175 -3.303,2.789 -4.624,5.23 -1.059,-1.883 -2.574,-3.663 -4.885,-5.192 1.837,-1.204 3.464,-2.875 4.835,-5.456 z"
     id="path3182" /></g></svg>